<?xml version="1.0" encoding="utf-8"?>
<!-- Generator: Adobe Illustrator 20.1.0, SVG Export Plug-In . SVG Version: 6.00 Build 0)  -->
<svg version="1.1" id="Слой_1" xmlns="http://www.w3.org/2000/svg" xmlns:xlink="http://www.w3.org/1999/xlink" x="0px" y="0px"
	 width="876.4px" height="500px" viewBox="0 0 876.4 500" enable-background="new 0 0 876.4 500" xml:space="preserve">
<path id="vk_x5F_alt_3_" fill-rule="evenodd" clip-rule="evenodd" fill="#0D0E0F" d="M428.8,497.9h52.4c0,0,15.8-1.7,23.9-10.4
	c7.4-8,7.2-23,7.2-23s-1-70.3,31.6-80.6c32.2-10.2,73.5,67.9,117.2,98c33.1,22.7,58.3,17.8,58.3,17.8l117-1.6
	c0,0,61.2-3.8,32.2-51.9c-2.4-3.9-16.9-35.6-87-100.7c-73.4-68.1-63.6-57.1,24.8-174.9C860.3,98.6,881.8,54.8,875.1,36
	c-6.4-17.9-46-13.2-46-13.2l-131.8,0.8c0,0-9.8-1.3-17,3c-7.1,4.2-11.6,14.1-11.6,14.1S647.8,96.4,620,143.6
	c-58.7,99.6-82.2,104.9-91.7,98.7c-22.3-14.4-16.7-57.9-16.7-88.8c0-96.6,14.6-136.8-28.5-147.3c-14.3-3.5-24.9-5.7-61.5-6.1
	c-47-0.5-86.8,0.1-109.3,11.2c-15,7.3-26.6,23.7-19.5,24.6c8.7,1.2,28.4,5.3,38.9,19.5c13.5,18.4,13,59.6,13,59.6
	s7.8,113.7-18.1,127.8c-17.8,9.7-42.1-10.1-94.4-100.5c-26.8-46.3-47-97.5-47-97.5S181,35.4,174,30.2c-8.4-6.2-20.2-8.2-20.2-8.2
	L28.6,22.9c0,0-18.8,0.5-25.7,8.7c-6.1,7.3-0.5,22.3-0.5,22.3s98,229.4,209,345C313.2,504.9,428.8,497.9,428.8,497.9L428.8,497.9
	L428.8,497.9z"/>
</svg>
